<svg xmlns="http://www.w3.org/2000/svg" xmlns:xlink="http://www.w3.org/1999/xlink"
    xml:space="preserve" version="1.1"
    style="shape-rendering:geometricPrecision;text-rendering:geometricPrecision;image-rendering:optimizeQuality;"
    viewBox="0 0 60000 75000" x="0px" y="0px" fill-rule="evenodd" clip-rule="evenodd"><defs>
  
  <style type="text/css">
    .fil0 {fill:white;fill-rule:nonzero}
  </style></defs>

  <!-- 
  Icon "cracked glass" by Olena Panasovska from Noun Project
    (https://thenounproject.com/icon/cracked-glass-3292568/) licensed under CC BY 3.0
    (https://creativecommons.org/licenses/by/3.0/).
  -->
  <g><path class="fil0" d="M56343.61 20193c194.72,-91.96 427.14,-8.64 519.11,186.09 91.96,194.73 8.63,427.15 -186.1,519.11l-12971.2 6097.81c247.99,14.88 489.62,45.57 721.77,92.93 565.49,115.36 1079.47,330.53 1500.78,657 431.6,334.42 759.56,780.49 939.69,1349.35 137.81,435.19 187.52,939.45 128.32,1516.99l10035.75 -1518.33 1.4 -0.21 0.4 -0.05 2321.7 -351.26 0 789.65 -2206.65 333.85c-1182.15,179.05 -2133.03,582.06 -2899.09,1178.64 -762.24,593.6 -1349.43,1384.09 -1805.69,2340.43l0.54 0.22c-1553.65,3900.92 -3285.95,4178.34 -5018.22,4455.75 -93.34,14.94 -186.68,29.88 -279.87,45.5 461.28,223.19 942.61,426.28 1447.2,592.16 1319.73,433.89 1770.44,852.71 2549.61,1576.75 152.57,141.79 103.89,98.21 211.88,197.71 648.33,597.31 4954.1,1437.84 8000.29,2004.41l0 793.73c-3136.16,-582.61 -7715.48,-1475.63 -8528.79,-2224.93 -257.16,-236.91 -200.23,-184.07 -216.07,-198.81 -698.89,-649.44 -1103.19,-1025.13 -2261.13,-1405.82 -1548.11,-508.97 -2477.55,-1096.32 -3799.35,-1892.73 -1634.44,-984.66 -3016.78,-1817.15 -4380.71,-1323.97l14869.63 9650.05c180.55,117.17 231.94,358.54 114.77,539.1 -117.18,180.55 -358.55,231.94 -539.1,114.77l-18047.36 -11712.33 999.14 4187.01 9756.86 13489.42c126.17,174.61 86.9,418.46 -87.72,544.63 -174.63,126.17 -418.47,86.9 -544.64,-87.73l-9338.56 -12853.07 -813.5 1607.09 2375.14 3973.14c8.35,12.31 15.93,25.01 22.73,38.02l3855.41 6449.33c109.86,185.2 48.78,424.38 -136.4,534.24 -185.19,109.85 -424.38,48.78 -534.24,-136.41l-372.09 -622.44c-643.76,-1076.92 -1277.33,-2136.71 -1911.45,-3197.46l-1551.13 -2594.73 -5707.29 -5089.2 -5468.67 18516.83 -812.1 0 5700.77 -19302.71c1.17,-5.23 2.43,-10.48 3.84,-15.71l824.93 -3041.03 -1183.83 -1710.4 -6539.82 8762.35c-3.2,4.47 -6.47,8.86 -9.82,13.15l-8782.23 11766.81c-128.69,172.63 -372.97,208.26 -545.61,79.56 -172.62,-128.69 -208.25,-372.97 -79.56,-545.6l8561.26 -11470.74c-8.28,-7.49 -16.49,-15 -24.58,-22.49 -560.19,-518.8 -764.32,-1117.18 -745.12,-1708.15 18.42,-567.18 248.92,-1115.97 565.42,-1569.47 102,-146.13 210.31,-280.16 321.1,-399.77 96.19,-103.85 191.17,-218.83 281.86,-342.13 335.53,-456.16 621.91,-1030.7 710.6,-1588.64 75.45,-474.66 1.4,-937.23 -328.66,-1286.56l-15879.92 10306.98c-180.92,117.14 -422.54,65.44 -539.67,-115.47 -117.14,-180.91 -65.44,-422.53 115.46,-539.67l16113.08 -10458.3c8.73,-6.18 17.67,-12 26.8,-17.4l3189.27 -2070.02 -653.82 -1047.96 -6205.07 2962.08c-195.03,93.12 -428.62,10.49 -521.74,-184.55 -93.11,-195.03 -10.48,-428.61 184.55,-521.74l2551.56 -1218.02 -498.56 -1125.04 -8466.57 2299.88c-12.02,3.89 -24.22,7.2 -36.55,9.92 -1580.32,429.29 -1901.74,470.76 -1560.93,1460.53 6.98,23.7 11.83,48.38 14.23,73.89 20.25,214.36 -137.13,404.55 -351.5,424.8l-8141.28 762.08c-185.44,17.72 -362.25,-99.98 -412.81,-285.83 -56.51,-207.74 66.11,-421.96 273.83,-478.47l9836.37 -2671.97 2736.46 -4754.51 -16157.58 -4823.77 0 -815.14 12310.76 3675.3 5082.36 -1982.33c92,-36.13 189.46,-34.87 275.6,-3.58l0.28 -0.79 7755.03 2810.15 564.27 -1207.92 -14222.38 -7331.94c-191.44,-99.02 -266.34,-334.5 -167.31,-525.93 99.01,-191.43 334.49,-266.35 525.92,-167.32l16208.61 8355.89 551.74 -1012.65 -15573.26 -17199.81c-144.11,-160.14 -131.11,-406.81 29.03,-550.93 160.15,-144.1 444.35,-139.19 588.47,20.96l3536.97 3906.39c785.16,867.16 1498.61,1704.67 2241.96,2525.66l3068.42 3388.88c11.23,-10.15 23.15,-19.76 35.8,-28.76l3359.74 -2405.15c165.41,-134.96 409.07,-112.17 546.45,52.04l1379.34 1648.81 2651.14 -1983.18 -2381.99 -15485.02 788.79 0 2395.34 15571.74c3.98,17.62 6.69,35.42 8.19,53.28l750.1 4876.32c62.83,-1.23 126.87,12.72 186.6,43.62l2417.62 1251.53c150.21,77.7 228.65,239.39 207.66,397.9l-225.15 2860.67 219.59 177.78 13850.66 -17705.54c133.44,-169.55 379.08,-198.81 548.62,-65.38 169.55,133.45 198.82,379.09 65.38,548.63l-9881.64 12631.87 1095.88 1054.6 7202.77 -7392.3c93.93,-96.57 248.39,-98.72 344.96,-4.78 96.57,93.94 98.71,248.4 4.78,344.96l-4347.76 4462.18c448.7,20.31 886.77,85.31 1306.71,191.83 576.78,146.3 1123.22,372 1619.7,668.68 452.73,270.55 801.72,586.46 1132.9,886.25 829.59,750.97 1536.64,1390.99 3535.71,618.95 10.41,-4.04 20.92,-7.31 31.5,-9.84l4072.98 -1914.72zm-15244.77 2498.27l-1057.59 -1017.74 -3910.38 4998.71 -0.62 -0.49 -3.88 4.91c-135.89,167.07 -381.48,192.34 -548.54,56.46l-687.71 -556.73 0.08 -0.09c-95.82,-78.09 -153.03,-200.33 -142.63,-332.88l222.57 -2827.77 -1877.96 -972.16 175.19 1138.86c33,212.72 -112.73,411.95 -325.46,444.95 -212.73,33.01 -411.95,-112.72 -444.95,-325.46l-968.64 -6296.91 -2614.21 1955.56c-169.13,126.25 -407.04,95 -538.16,-68.24l-1380 -1649.61 -3049.73 2183.23 6340.62 7002.85c114.37,119.58 143.86,303.89 60.28,456.8l-862.65 1583.25c-99.13,191.17 -334.43,265.94 -525.75,166.98l-1631.51 -841.08 -692.47 1482.37c-77.24,196.45 -297.45,296.69 -497.08,224.26l-7953.32 -2881.98 -4012.6 1565.08 3326.71 993.17 -0.05 0.18c28.51,8.53 56.48,20.45 83.38,35.97 186.72,107.67 250.81,346.34 143.14,533.06l-2591.5 4502.66 7869.46 -2137.67c190.53,-67.45 403.9,22.17 487.3,210.02l625.25 1410.92 3262.05 -1557.18 0.58 1.21c177.19,-84.86 393.57,-24.37 499.46,146.42l1034.17 1657.59c1.3,1.9 2.58,3.82 3.83,5.76 117.14,180.92 65.44,422.53 -115.46,539.67l-3107.5 2016.94c440.18,528.75 540.23,1180.84 435.61,1838.88 -109.91,691.42 -453.08,1387.52 -853.15,1931.38 -110.07,149.65 -223.77,287.5 -337.54,410.34 -91.73,99.03 -177.67,204.65 -254.25,314.36 -238.1,341.15 -411.19,744.01 -424.24,1145.94 -11.86,365.13 114.99,739.73 460.04,1076.5l6608.18 -8853.9c27.39,-43 63.66,-81.32 108.33,-112.01 177.92,-122.23 421.25,-77.1 543.47,100.82l1595.66 2305.4 -0.47 0.32c62.36,90.85 86.08,207.42 55.28,322.18l-809.47 2984.05 4128.05 3680.97 -1176.61 -1968.22c-78.15,-113.9 -93.37,-265.85 -26.57,-397.77l1091.26 -2155.82 -848.02 -1167.16c-43.98,-60.85 -70.95,-135.01 -73.59,-215.68l-125.12 -3890.76 0.23 -0.01c-2.59,-76.95 17.52,-155.43 62.61,-224.92 117.19,-180.56 358.55,-231.95 539.1,-114.76l3002.4 1948.49c1884.62,-1057.17 3552.65,-52.51 5560.16,1156.91 360.47,217.16 732.71,441.41 1118.99,660.48 413.89,-119.05 821.7,-184.37 1229.5,-249.67 1471.35,-235.63 2942.68,-471.69 4300.69,-3694.71 167.45,-720.94 176.42,-1298.29 -14.94,-1701.93 -245.19,-517.18 -863.11,-761.34 -1959.31,-669.22l-3021.4 457.12c-13.21,2.72 -26.63,4.74 -40.2,6.07l-8735.7 1321.65 -0.11 -0.72c-33.66,5.08 -68.56,5.82 -104.01,1.63 -213.65,-25.22 -366.44,-218.9 -341.21,-432.56l381.97 -3211.7c10,-135.59 90.72,-262.08 222.45,-324.29l2432.75 -1143.65 -945.52 -1334.45c-78.1,-109.77 -52.42,-262.08 57.35,-340.19 5.07,-3.61 10.24,-6.99 15.49,-10.16l-0.21 -0.35 1703.53 -1026.59 -1165.29 -836.2c-109.24,-78.63 -134.06,-230.95 -55.42,-340.19 7.11,-9.88 14.84,-19.07 23.08,-27.56l-0.15 -0.15 1042.6 -1070.04zm-230.39 4776.66l212.24 -99.78c12.96,-7 26.41,-13.36 40.34,-18.97l4385.5 -2061.64c13.41,-13.8 28.66,-26.23 45.7,-36.87 1273.63,-800.91 1926.2,-1459.52 2219.39,-2078.79 387.18,-817.77 352.11,-1661.06 -451.97,-2141.55 -452.02,-270.12 -954.38,-476.83 -1489.1,-612.46 -529.02,-134.19 -1086.02,-197.74 -1653.48,-183.2l-3.44 0.04 -3570.05 3663.99 1221.23 876.35c32.47,19.82 60.8,47.53 81.8,82.36 69.66,115.58 32.44,265.76 -83.14,335.42l-1795.67 1082.12 818.62 1155.35c8.59,12.08 15.93,24.67 22.03,37.63zm-26715.44 -5620.65c120.01,60.43 168.31,206.74 107.87,326.76 -60.43,120.02 -206.74,168.32 -326.76,107.88l-7417.36 -3725.05c-120.02,-60.44 -168.32,-206.75 -107.87,-326.76 60.43,-120.02 206.74,-168.32 326.76,-107.88l7417.36 3725.05zm4819.53 20703.65c108.87,-79.3 261.43,-55.34 340.74,53.53 79.31,108.87 55.34,261.43 -53.53,340.74l-4710.61 3430.2c-108.87,79.31 -261.43,55.35 -340.74,-53.52 -79.3,-108.87 -55.34,-261.43 53.53,-340.74l4710.61 -3430.21zm9241.24 5135.92c50.18,-125 192.2,-185.65 317.2,-135.48 124.99,50.17 185.65,192.19 135.48,317.19l-1907.08 4725.12c-45.13,112.44 -164.61,172.81 -279.13,147.27l-892.14 -169.11 -2807.97 5707.83c-59.46,120.65 -205.49,170.28 -326.15,110.83 -120.66,-59.46 -170.29,-205.49 -110.82,-326.15l2884.77 -5863.94c44.4,-102.13 154.91,-163.73 268.93,-142.12l884.89 167.74 1832.02 -4539.18zm15346.09 -1950.75c-83.13,-106.02 -64.6,-259.35 41.41,-342.48 106.01,-83.14 259.35,-64.6 342.48,41.41l3758.35 4757.94c83.14,106.01 64.61,259.35 -41.41,342.48 -106.01,83.14 -259.34,64.59 -342.47,-41.41l-3758.36 -4757.94zm-2155.1 -17658.54l-2886.35 1356.88 -298 2505.52 7972.7 -1206.21c82.63,-554.25 51.28,-1019.3 -70.15,-1402.81 -129.8,-409.9 -365,-730.45 -674.05,-969.91 -319.3,-247.45 -723.54,-413.51 -1178.04,-506.23 -862.88,-176.02 -1889.68,-83.29 -2866.11,222.76z"/></g></svg>